<?xml version="1.0" standalone="no"?>
<!DOCTYPE svg PUBLIC "-//W3C//DTD SVG 20010904//EN"
 "http://www.w3.org/TR/2001/REC-SVG-20010904/DTD/svg10.dtd">
<svg version="1.0" xmlns="http://www.w3.org/2000/svg"
 width="1024.000000pt" height="1024.000000pt" viewBox="0 0 1024.000000 1024.000000"
 preserveAspectRatio="xMidYMid meet">

<g transform="translate(0.000000,1024.000000) scale(0.100000,-0.100000)"
fill="#ffffff" stroke="none">
<path d="M2747 9819 c-106 -25 -201 -104 -251 -209 l-31 -65 -3 -4000 c-2
-2851 0 -4011 8 -4038 6 -20 22 -44 36 -53 23 -15 256 -17 2907 -16 l2882 0
56 21 c115 44 193 125 229 240 20 62 20 89 20 2662 l0 2599 -1317 2 -1318 3
-46 21 c-67 31 -124 87 -156 152 l-28 57 -3 1318 -2 1317 -1473 -1 c-814 -1
-1489 -5 -1510 -10z m1763 -2654 l0 -205 -515 0 -515 0 0 205 0 205 515 0 515
0 0 -205z m2450 -2045 l0 -210 -1740 0 -1740 0 0 210 0 210 1740 0 1740 0 0
-210z m620 -1025 l0 -205 -2050 0 -2050 0 0 205 0 205 2050 0 2050 0 0 -205z
m-1842 -1022 l2 -203 -1130 0 -1130 0 0 205 0 205 1128 -2 1127 -3 3 -202z"/>
<path d="M6150 8676 c0 -1136 0 -1150 20 -1192 25 -50 84 -94 142 -105 54 -10
2278 -12 2278 -1 0 4 -549 556 -1220 1227 l-1220 1220 0 -1149z"/>
<path d="M1927 8999 c-106 -25 -201 -104 -251 -209 l-31 -65 -3 -3890 c-2
-3528 -1 -3895 14 -3945 33 -114 119 -208 229 -249 l56 -21 2974 0 c2966 0
2974 0 3029 20 111 42 190 125 226 239 16 51 20 91 20 207 l0 144 -2890 0
c-2415 0 -2896 2 -2923 14 -43 18 -86 62 -108 111 -18 39 -19 176 -19 3848 l0
3807 -142 -1 c-79 -1 -160 -5 -181 -10z"/>
</g>
</svg>
